<?xml version="1.0" ?><!DOCTYPE svg  PUBLIC '-//W3C//DTD SVG 1.1//EN'  'http://www.w3.org/Graphics/SVG/1.1/DTD/svg11.dtd'><svg height="1024.000" viewBox="-445.000 -512.000 890.000 1024.000" width="890.000" xmlns="http://www.w3.org/2000/svg"><line fill="none" stroke="none" stroke-linecap="round" stroke-width="2.0" x1="0.0" x2="0.0" y1="0.0" y2="0.0"/><line fill="none" stroke="none" stroke-linecap="round" stroke-width="2.0" x1="0.0" x2="0.0" y1="0.0" y2="0.0"/><line fill="none" stroke="none" stroke-linecap="round" stroke-width="2.0" x1="0.0" x2="0.0" y1="0.0" y2="0.0"/><polyline fill="none" points="-433.0127018922193,250.00000000000006 -416.9751944147297,222.22222222222229 -433.0127018922193,194.4444444444445 -400.9376869372401,194.4444444444445 -384.90017945975046,166.66666666666674 -400.9376869372401,138.88888888888897 -433.0127018922193,138.88888888888897 -416.9751944147297,111.1111111111112 -433.0127018922193,83.33333333333343 -400.9376869372401,83.33333333333343 -384.90017945975046,55.55555555555566 -368.86267198226085,83.33333333333343 -336.7876570272816,83.33333333333344 -320.750149549792,55.55555555555568 -336.7876570272816,27.7777777777779 -304.7126420723024,27.77777777777791 -288.6751345948128,1.4921397450962104e-13 -304.7126420723024,-27.77777777777763 -336.7876570272816,-27.777777777777654 -320.750149549792,-55.555555555555415 -336.7876570272816,-83.3333333333332 -368.86267198226085,-83.33333333333323 -384.90017945975046,-55.55555555555547 -400.9376869372401,-83.33333333333326 -433.0127018922193,-83.33333333333329 -416.9751944147297,-111.11111111111104 -433.0127018922193,-138.88888888888883 -400.9376869372401,-138.88888888888883 -384.90017945975046,-166.66666666666657 -400.93768693724,-194.44444444444434 -433.0127018922192,-194.44444444444437 -416.9751944147296,-222.22222222222211 -433.0127018922191,-249.9999999999999 -400.93768693723996,-249.99999999999986 -384.90017945975035,-277.7777777777776 -368.86267198226074,-249.99999999999983 -336.7876570272815,-249.9999999999998 -320.7501495497919,-277.77777777777754 -336.78765702728145,-305.5555555555553 -304.7126420723023,-305.5555555555553 -288.6751345948127,-333.3333333333331 -272.63762711732306,-305.5555555555553 -240.56261216234387,-305.5555555555553" stroke="#000" stroke-linecap="round" stroke-linejoin="round"/><polyline fill="none" points="433.0127018922194,249.99999999999983 400.9376869372402,249.99999999999983 384.9001794597506,277.7777777777776 368.86267198226096,249.99999999999983 336.78765702728174,249.99999999999983 320.7501495497921,277.7777777777776 336.78765702728174,305.5555555555554 304.7126420723025,305.5555555555554 288.6751345948129,333.33333333333314 272.6376271173233,305.5555555555554 240.5626121623441,305.5555555555554 256.6001196398337,277.7777777777776 240.56261216234407,249.99999999999983 208.48759720736487,249.99999999999983 192.45008972987526,277.7777777777776 176.41258225238568,249.99999999999983 144.33756729740648,249.99999999999983 128.30005981991687,277.7777777777776 144.33756729740645,305.5555555555554 112.26255234242726,305.5555555555554 96.22504486493764,333.33333333333314 112.26255234242723,361.1111111111109 144.33756729740642,361.1111111111109 128.3000598199168,388.8888888888887 144.3375672974064,416.66666666666646 112.2625523424272,416.66666666666646 96.22504486493759,444.44444444444423 80.187537387448,416.66666666666646 48.11252243246881,416.66666666666646 32.075014954979196,444.44444444444423 48.11252243246878,472.222222222222 16.037507477489584,472.222222222222 -2.842170943040401e-14,499.9999999999998 -16.037507477489616,472.222222222222 -48.11252243246881,472.222222222222 -32.07501495497921,444.44444444444423 -48.11252243246879,416.66666666666646 -80.18753738744799,416.66666666666646 -96.2250448649376,444.44444444444423 -112.26255234242718,416.66666666666646 -144.3375672974064,416.66666666666646 -128.30005981991678,388.8888888888887 -144.33756729740637,361.1111111111109" stroke="#000" stroke-linecap="round" stroke-linejoin="round"/><polyline fill="none" points="1.5308084989341916e-13,-500.0 16.037507477489758,-472.22222222222223 48.112522432468964,-472.22222222222223 32.075014954979366,-444.44444444444446 48.112522432468964,-416.6666666666667 80.18753738744817,-416.6666666666667 96.22504486493779,-444.44444444444446 112.26255234242738,-416.6666666666667 144.33756729740657,-416.6666666666667 128.30005981991695,-388.8888888888889 144.33756729740654,-361.11111111111114 112.26255234242734,-361.11111111111114 96.22504486493774,-333.33333333333337 112.26255234242734,-305.5555555555556 144.33756729740654,-305.5555555555556 128.30005981991692,-277.7777777777778 144.3375672974065,-250.00000000000006 176.4125822523857,-250.00000000000003 192.45008972987532,-277.77777777777777 208.4875972073649,-250.0 240.5626121623441,-249.99999999999997 256.6001196398337,-277.7777777777777 240.5626121623441,-305.5555555555555 272.6376271173233,-305.5555555555555 288.6751345948129,-333.33333333333326 304.7126420723025,-305.5555555555555 336.78765702728174,-305.5555555555555 320.7501495497921,-277.7777777777777 336.78765702728174,-249.99999999999994 368.86267198226096,-249.99999999999991 384.9001794597506,-277.77777777777766 400.9376869372402,-249.9999999999999 433.0127018922194,-249.99999999999986 416.9751944147298,-222.2222222222221 433.0127018922194,-194.44444444444431 400.93768693724024,-194.44444444444431 384.90017945975063,-166.66666666666657 400.9376869372402,-138.8888888888888 433.01270189221935,-138.88888888888877 416.97519441472974,-111.11111111111101 433.0127018922193,-83.33333333333324 400.93768693724013,-83.33333333333324 384.9001794597505,-55.555555555555486" stroke="#000" stroke-linecap="round" stroke-linejoin="round"/><polyline fill="none" points="-240.56261216234387,-305.5555555555553 -256.60011963983345,-277.77777777777754 -240.56261216234387,-249.99999999999977 -208.48759720736467,-249.99999999999974 -192.45008972987506,-277.7777777777775 -176.41258225238548,-249.99999999999972 -144.33756729740628,-249.9999999999997 -128.30005981991667,-277.77777777777743 -144.33756729740625,-305.5555555555552 -112.26255234242706,-305.5555555555552 -96.22504486493744,-333.333333333333 -112.26255234242703,-361.11111111111074 -144.33756729740622,-361.11111111111074 -128.3000598199166,-388.8888888888885 -144.3375672974062,-416.6666666666663 -112.262552342427,-416.6666666666663 -96.22504486493739,-444.44444444444406 -80.1875373874478,-416.6666666666663 -48.11252243246861,-416.6666666666663 -32.075014954979,-444.44444444444406 -48.11252243246858,-472.22222222222183 -16.037507477489385,-472.22222222222183 2.2737367544323206e-13,-499.9999999999996" stroke="#000" stroke-linecap="round" stroke-linejoin="round"/><polyline fill="none" points="-144.33756729740637,361.1111111111109 -112.26255234242717,361.1111111111109 -96.22504486493757,333.33333333333314 -112.26255234242716,305.5555555555554 -144.33756729740634,305.5555555555554 -128.30005981991673,277.7777777777776 -144.3375672974063,249.99999999999983 -176.4125822523855,249.9999999999998 -192.45008972987512,277.77777777777754 -208.4875972073647,249.99999999999977 -240.5626121623439,249.99999999999974 -256.6001196398335,277.7777777777775 -240.56261216234392,305.55555555555526 -272.6376271173231,305.55555555555526 -288.67513459481273,333.33333333333303 -304.7126420723023,305.55555555555526 -336.78765702728145,305.55555555555526 -320.75014954979184,277.7777777777775 -336.7876570272814,249.99999999999972 -368.86267198226057,249.9999999999997 -384.9001794597502,277.77777777777743 -400.93768693723973,249.99999999999966 -433.0127018922189,249.99999999999963" stroke="#000" stroke-linecap="round" stroke-linejoin="round"/><polyline fill="none" points="384.9001794597505,-55.555555555555486 368.8626719822609,-83.33333333333324 336.78765702728174,-83.33333333333324 320.7501495497921,-55.555555555555486 336.78765702728174,-27.777777777777718 304.7126420723026,-27.777777777777725 288.67513459481296,3.197442310920451e-14 304.7126420723025,27.7777777777778 336.7876570272817,27.777777777777818 320.75014954979207,55.55555555555557 336.7876570272816,83.33333333333334 368.8626719822608,83.33333333333336 384.9001794597504,55.5555555555556 400.93768693723996,83.33333333333337 433.0127018922191,83.33333333333339 416.9751944147295,111.11111111111114 433.01270189221907,138.8888888888889 400.9376869372399,138.8888888888889 384.9001794597503,166.66666666666669 400.93768693723985,194.44444444444446 433.012701892219,194.44444444444449 416.9751944147294,222.22222222222223 433.01270189221896,250.0" stroke="#000" stroke-linecap="round" stroke-linejoin="round"/><polygon fill="#000" fill-rule="evenodd" points="2.2737367544323206e-13,-499.9999999999996 -8.83012701892197,-494.70577136593965 -3.4999999999997766,-493.93782217350855 -0.1698729810775852,-489.70577136593965" stroke="#000" stroke-linejoin="round"/><polygon fill="#000" fill-rule="evenodd" points="-433.0127018922189,249.99999999999963 -424.0127018922189,254.99999999999963 -426.0127018922189,249.99999999999963 -424.0127018922189,244.99999999999963" stroke="#000" stroke-linejoin="round"/><polygon fill="#000" fill-rule="evenodd" points="433.01270189221896,250.0 432.84282891114117,239.70577136594005 429.51270189221896,243.93782217350892 424.18257487329674,244.70577136594005" stroke="#000" stroke-linejoin="round"/></svg>