<?xml version="1.0" ?><!DOCTYPE svg  PUBLIC '-//W3C//DTD SVG 1.1//EN'  'http://www.w3.org/Graphics/SVG/1.1/DTD/svg11.dtd'><svg height="1024.000" viewBox="-445.000 -512.000 890.000 1024.000" width="890.000" xmlns="http://www.w3.org/2000/svg"><line fill="none" stroke="none" stroke-linecap="round" stroke-width="2.0" x1="0.0" x2="0.0" y1="0.0" y2="0.0"/><line fill="none" stroke="none" stroke-linecap="round" stroke-width="2.0" x1="0.0" x2="0.0" y1="0.0" y2="0.0"/><line fill="none" stroke="none" stroke-linecap="round" stroke-width="2.0" x1="0.0" x2="0.0" y1="0.0" y2="0.0"/><polyline fill="none" points="-433.0127018922193,250.00000000000006 -427.66686606638945,240.7407407407408 -433.0127018922193,231.48148148148152 -422.32103024055954,231.48148148148152 -416.9751944147297,222.22222222222226 -422.32103024055954,212.962962962963 -433.0127018922193,212.962962962963 -427.66686606638945,203.70370370370372 -433.0127018922193,194.44444444444446 -422.32103024055954,194.44444444444446 -416.9751944147297,185.1851851851852 -411.62935858889983,194.44444444444446 -400.9376869372401,194.44444444444446 -395.5918511114102,185.1851851851852 -400.9376869372401,175.92592592592592 -390.24601528558037,175.92592592592592 -384.9001794597505,166.66666666666669 -390.24601528558037,157.40740740740742 -400.9376869372401,157.40740740740742 -395.5918511114102,148.14814814814815 -400.9376869372401,138.88888888888889 -411.6293585888998,138.88888888888889 -416.97519441472963,148.14814814814815 -422.3210302405595,138.88888888888889 -433.0127018922192,138.88888888888889 -427.66686606638933,129.62962962962962 -433.0127018922192,120.37037037037035 -422.3210302405595,120.37037037037035 -416.97519441472963,111.1111111111111 -422.3210302405595,101.85185185185185 -433.0127018922192,101.85185185185183 -427.66686606638933,92.59259259259258 -433.0127018922192,83.33333333333331 -422.3210302405595,83.33333333333331 -416.97519441472963,74.07407407407406 -411.6293585888998,83.33333333333331 -400.9376869372401,83.33333333333331 -395.5918511114102,74.07407407407406 -400.9376869372401,64.81481481481481 -390.24601528558037,64.81481481481481 -384.9001794597505,55.55555555555556 -379.55434363392067,64.81481481481481 -368.86267198226096,64.81481481481481" stroke="#000" stroke-linecap="round" stroke-linejoin="round"/><polyline fill="none" points="433.0127018922194,249.99999999999983 422.32103024055965,249.99999999999983 416.9751944147298,259.25925925925907 411.62935858889995,249.9999999999998 400.9376869372402,249.9999999999998 395.59185111141034,259.25925925925907 400.9376869372402,268.5185185185183 390.2460152855804,268.5185185185183 384.9001794597506,277.77777777777754 379.5543436339207,268.5185185185183 368.86267198226096,268.5185185185183 374.2085078080908,259.25925925925907 368.86267198226096,249.9999999999998 358.1710003306012,249.9999999999998 352.82516450477135,259.25925925925907 347.4793286789415,249.9999999999998 336.78765702728174,249.9999999999998 331.4418212014519,259.25925925925907 336.78765702728174,268.5185185185183 326.09598537562204,268.5185185185183 320.7501495497922,277.77777777777754 326.09598537562204,287.0370370370368 336.78765702728174,287.0370370370368 331.4418212014519,296.296296296296 336.78765702728174,305.55555555555526 326.09598537562204,305.55555555555526 320.7501495497922,314.8148148148145 315.40431372396233,305.55555555555526 304.71264207230263,305.55555555555526 299.3668062464728,314.8148148148145 304.71264207230263,324.07407407407374 294.0209704206429,324.07407407407374 288.6751345948131,333.333333333333 283.3292987689832,324.07407407407374 272.6376271173235,324.07407407407374 277.98346294315337,314.8148148148145 272.6376271173235,305.55555555555526 261.9459554656638,305.55555555555526 256.60011963983396,314.8148148148145 251.2542838140041,305.55555555555526 240.56261216234438,305.55555555555526 245.90844798817426,296.296296296296 240.5626121623444,287.0370370370368" stroke="#000" stroke-linecap="round" stroke-linejoin="round"/><polyline fill="none" points="1.5308084989341916e-13,-500.0 5.3458358258300205,-490.74074074074076 16.037507477489754,-490.74074074074076 10.69167165165989,-481.4814814814815 16.037507477489758,-472.2222222222223 26.729179129149493,-472.2222222222223 32.075014954979366,-481.4814814814815 37.42085078080923,-472.2222222222223 48.112522432468964,-472.2222222222223 42.7666866066391,-462.96296296296305 48.112522432468964,-453.7037037037038 37.42085078080923,-453.7037037037038 32.075014954979366,-444.44444444444457 37.42085078080923,-435.18518518518533 48.112522432468964,-435.18518518518533 42.7666866066391,-425.9259259259261 48.112522432468964,-416.66666666666686 58.804194084128696,-416.66666666666686 64.15002990995856,-425.9259259259261 69.49586573578843,-416.66666666666686 80.18753738744816,-416.66666666666686 85.53337321327803,-425.9259259259261 80.18753738744816,-435.18518518518533 90.87920903910789,-435.18518518518533 96.22504486493776,-444.44444444444457 101.57088069076762,-435.18518518518533 112.26255234242736,-435.18518518518533 106.91671651659749,-425.9259259259261 112.26255234242736,-416.66666666666686 122.95422399408709,-416.66666666666686 128.30005981991695,-425.9259259259261 133.6458956457468,-416.66666666666686 144.33756729740654,-416.66666666666686 138.99173147157666,-407.4074074074076 144.3375672974065,-398.1481481481484 133.64589564574678,-398.1481481481484 128.3000598199169,-388.88888888888914 133.64589564574675,-379.6296296296299 144.33756729740648,-379.6296296296299 138.9917314715766,-370.37037037037067 144.33756729740645,-361.1111111111114 133.64589564574672,-361.1111111111114 128.30005981991684,-351.8518518518522" stroke="#000" stroke-linecap="round" stroke-linejoin="round"/><polyline fill="none" points="-368.86267198226096,64.81481481481481 -374.2085078080908,74.07407407407406 -368.86267198226096,83.33333333333331 -358.17100033060126,83.33333333333331 -352.8251645047714,74.07407407407406 -347.47932867894156,83.33333333333331 -336.78765702728185,83.33333333333331 -331.441821201452,74.07407407407406 -336.78765702728185,64.81481481481481 -326.09598537562215,64.81481481481481 -320.7501495497923,55.55555555555556 -326.09598537562215,46.2962962962963 -336.78765702728185,46.29629629629629 -331.441821201452,37.03703703703704 -336.78765702728185,27.77777777777778 -326.09598537562215,27.777777777777782 -320.7501495497923,18.51851851851853 -315.40431372396245,27.777777777777786 -304.71264207230274,27.77777777777779 -299.3668062464729,18.518518518518537 -304.71264207230274,9.259259259259277 -294.02097042064304,9.259259259259283 -288.6751345948132,3.019806626980426e-14 -294.02097042064304,-9.25925925925923 -304.71264207230274,-9.259259259259238 -299.3668062464729,-18.51851851851849 -304.71264207230274,-27.77777777777775 -315.40431372396245,-27.777777777777757 -320.7501495497923,-18.51851851851851 -326.09598537562215,-27.777777777777764 -336.78765702728185,-27.777777777777775 -331.441821201452,-37.037037037037024 -336.78765702728185,-46.296296296296276 -326.09598537562215,-46.29629629629627 -320.7501495497923,-55.555555555555515 -326.09598537562215,-64.81481481481477 -336.78765702728185,-64.81481481481478 -331.441821201452,-74.07407407407403 -336.78765702728185,-83.33333333333329 -347.47932867894156,-83.3333333333333 -352.8251645047714,-74.07407407407405 -358.17100033060126,-83.3333333333333 -368.86267198226096,-83.33333333333331" stroke="#000" stroke-linecap="round" stroke-linejoin="round"/><polyline fill="none" points="240.5626121623444,287.0370370370368 251.25428381400414,287.0370370370368 256.600119639834,277.77777777777754 251.25428381400417,268.5185185185183 240.56261216234444,268.5185185185183 245.90844798817432,259.25925925925907 240.56261216234446,249.9999999999998 229.87094051068473,249.9999999999998 224.52510468485485,259.25925925925907 219.179268859025,249.9999999999998 208.48759720736527,249.9999999999998 203.1417613815354,259.25925925925907 208.48759720736524,268.5185185185183 197.7959255557055,268.5185185185183 192.45008972987563,277.77777777777754 187.10425390404578,268.5185185185183 176.41258225238604,268.5185185185183 181.75841807821593,259.25925925925907 176.41258225238607,249.9999999999998 165.72091060072634,249.9999999999998 160.37507477489646,259.25925925925907 155.0292389490666,249.9999999999998 144.33756729740688,249.9999999999998 138.991731471577,259.25925925925907 144.33756729740685,268.5185185185183 133.64589564574712,268.5185185185183 128.30005981991724,277.77777777777754 133.6458956457471,287.0370370370368 144.33756729740682,287.0370370370368 138.99173147157694,296.296296296296 144.3375672974068,305.55555555555526 133.64589564574706,305.55555555555526 128.30005981991718,314.8148148148145 122.95422399408733,305.55555555555526 112.2625523424276,305.55555555555526 106.91671651659773,314.8148148148145 112.26255234242758,324.07407407407374 101.57088069076785,324.07407407407374 96.22504486493798,333.333333333333 101.57088069076784,342.5925925925922 112.26255234242757,342.5925925925922 106.9167165165977,351.85185185185145 112.26255234242755,361.1111111111107" stroke="#000" stroke-linecap="round" stroke-linejoin="round"/><polyline fill="none" points="128.30005981991684,-351.8518518518522 122.95422399408697,-361.1111111111114 112.26255234242724,-361.1111111111114 106.91671651659738,-351.8518518518522 112.26255234242724,-342.59259259259295 101.57088069076751,-342.59259259259295 96.22504486493764,-333.3333333333337 101.57088069076751,-324.0740740740745 112.26255234242724,-324.0740740740745 106.91671651659738,-314.81481481481524 112.26255234242724,-305.555555555556 122.95422399408697,-305.555555555556 128.30005981991684,-314.81481481481524 133.6458956457467,-305.555555555556 144.33756729740642,-305.555555555556 138.99173147157654,-296.29629629629676 144.3375672974064,-287.0370370370375 133.64589564574666,-287.0370370370375 128.30005981991678,-277.7777777777783 133.64589564574663,-268.51851851851904 144.33756729740637,-268.51851851851904 138.9917314715765,-259.2592592592598 144.33756729740634,-250.00000000000054 155.02923894906607,-250.00000000000054 160.37507477489595,-259.2592592592598 165.7209106007258,-250.00000000000054 176.41258225238553,-250.00000000000054 181.7584180782154,-259.2592592592598 176.41258225238556,-268.51851851851904 187.1042539040453,-268.51851851851904 192.45008972987517,-277.7777777777783 197.79592555570503,-268.51851851851904 208.48759720736476,-268.51851851851904 203.14176138153488,-259.2592592592598 208.48759720736473,-250.00000000000054 219.17926885902446,-250.00000000000054 224.52510468485434,-259.2592592592598 229.8709405106842,-250.00000000000054 240.56261216234392,-250.00000000000054 245.9084479881738,-259.2592592592598 240.56261216234395,-268.51851851851904 251.25428381400368,-268.51851851851904 256.60011963983357,-277.7777777777783" stroke="#000" stroke-linecap="round" stroke-linejoin="round"/><polyline fill="none" points="-368.86267198226096,-83.33333333333331 -374.2085078080908,-74.07407407407408 -368.86267198226096,-64.81481481481482 -379.55434363392067,-64.81481481481484 -384.9001794597505,-55.55555555555559 -390.24601528558037,-64.81481481481485 -400.9376869372401,-64.81481481481487 -395.5918511114102,-74.0740740740741 -400.9376869372401,-83.33333333333336 -411.6293585888998,-83.33333333333337 -416.97519441472963,-74.07407407407413 -422.3210302405595,-83.33333333333339 -433.0127018922192,-83.3333333333334 -427.66686606638933,-92.59259259259264 -433.0127018922192,-101.85185185185189 -422.3210302405595,-101.85185185185188 -416.97519441472963,-111.11111111111111 -422.3210302405595,-120.37037037037037 -433.0127018922192,-120.37037037037038 -427.66686606638933,-129.62962962962962 -433.0127018922192,-138.88888888888886 -422.3210302405595,-138.88888888888886 -416.97519441472963,-148.1481481481481 -411.6293585888998,-138.88888888888886 -400.9376869372401,-138.88888888888886 -395.5918511114102,-148.1481481481481 -400.9376869372401,-157.40740740740733 -390.24601528558037,-157.40740740740733 -384.9001794597505,-166.66666666666657 -390.24601528558037,-175.9259259259258 -400.9376869372401,-175.92592592592584 -395.5918511114102,-185.18518518518508 -400.9376869372401,-194.44444444444434 -411.6293585888998,-194.44444444444437 -416.97519441472963,-185.18518518518513 -422.3210302405595,-194.4444444444444 -433.0127018922192,-194.44444444444443 -427.66686606638933,-203.70370370370367 -433.0127018922192,-212.96296296296293 -422.3210302405595,-212.9629629629629 -416.97519441472963,-222.22222222222214 -422.3210302405595,-231.4814814814814 -433.0127018922192,-231.48148148148144" stroke="#000" stroke-linecap="round" stroke-linejoin="round"/><polyline fill="none" points="112.26255234242755,361.1111111111107 122.95422399408729,361.1111111111107 128.30005981991715,351.85185185185145 133.645895645747,361.1111111111107 144.33756729740674,361.1111111111107 138.99173147157686,370.3703703703699 144.3375672974067,379.62962962962916 133.64589564574698,379.62962962962916 128.3000598199171,388.8888888888884 133.64589564574695,398.14814814814764 144.33756729740668,398.14814814814764 138.9917314715768,407.4074074074069 144.33756729740665,416.6666666666661 133.64589564574692,416.6666666666661 128.30005981991704,425.92592592592536 122.95422399408719,416.6666666666661 112.26255234242745,416.6666666666661 106.91671651659757,425.92592592592536 112.26255234242743,435.1851851851846 101.5708806907677,435.1851851851846 96.22504486493781,444.44444444444383 90.87920903910796,435.1851851851846 80.18753738744823,435.1851851851846 85.5333732132781,425.92592592592536 80.18753738744824,416.6666666666661 69.49586573578853,416.6666666666661 64.15002990995865,425.92592592592536 58.804194084128795,416.6666666666661 48.11252243246907,416.6666666666661 42.7666866066392,425.92592592592536 48.11252243246905,435.1851851851846 37.420850780809324,435.1851851851846 32.07501495497945,444.44444444444383 37.4208507808093,453.70370370370307 48.11252243246903,453.70370370370307 42.766686606639155,462.9629629629623 48.11252243246901,472.22222222222155 37.42085078080928,472.22222222222155 32.07501495497941,481.4814814814808 26.729179129149557,472.22222222222155 16.037507477489836,472.22222222222155 10.691671651659963,481.4814814814808 16.03750747748981,490.74074074074" stroke="#000" stroke-linecap="round" stroke-linejoin="round"/><polyline fill="none" points="256.60011963983357,-277.7777777777783 251.2542838140037,-287.0370370370375 240.56261216234398,-287.0370370370375 245.90844798817386,-296.29629629629676 240.562612162344,-305.555555555556 251.25428381400374,-305.555555555556 256.6001196398336,-314.81481481481524 261.9459554656635,-305.555555555556 272.6376271173232,-305.555555555556 277.98346294315303,-314.81481481481524 272.6376271173232,-324.0740740740745 283.3292987689829,-324.0740740740745 288.67513459481273,-333.3333333333337 294.0209704206426,-324.0740740740745 304.7126420723023,-324.0740740740745 299.36680624647244,-314.81481481481524 304.7126420723023,-305.555555555556 315.404313723962,-305.555555555556 320.75014954979184,-314.81481481481524 326.0959853756217,-305.555555555556 336.7876570272814,-305.555555555556 331.44182120145155,-296.29629629629676 336.7876570272814,-287.0370370370375 326.0959853756217,-287.0370370370375 320.75014954979184,-277.7777777777783 326.0959853756217,-268.51851851851904 336.7876570272814,-268.51851851851904 331.44182120145155,-259.2592592592598 336.7876570272814,-250.00000000000054 347.4793286789411,-250.00000000000054 352.82516450477095,-259.2592592592598 358.1710003306008,-250.00000000000054 368.8626719822605,-250.00000000000054 374.20850780809036,-259.2592592592598 368.8626719822605,-268.51851851851904 379.5543436339202,-268.51851851851904 384.90017945975006,-277.7777777777783 390.2460152855799,-268.51851851851904 400.9376869372396,-268.51851851851904 395.59185111140977,-259.2592592592598 400.9376869372396,-250.00000000000054 411.6293585888993,-250.00000000000054 416.9751944147292,-259.2592592592598" stroke="#000" stroke-linecap="round" stroke-linejoin="round"/><polyline fill="none" points="-433.0127018922192,-231.48148148148144 -427.66686606638933,-240.74074074074068 -433.0127018922192,-249.99999999999994 -422.3210302405595,-249.99999999999991 -416.97519441472963,-259.2592592592591 -411.6293585888998,-249.9999999999999 -400.9376869372401,-249.99999999999986 -395.5918511114102,-259.25925925925907 -400.9376869372401,-268.5185185185183 -390.24601528558037,-268.5185185185183 -384.9001794597505,-277.77777777777754 -379.55434363392067,-268.5185185185183 -368.86267198226096,-268.5185185185183 -374.2085078080908,-259.25925925925907 -368.86267198226096,-249.99999999999983 -358.17100033060126,-249.9999999999998 -352.8251645047714,-259.259259259259 -347.47932867894156,-249.99999999999977 -336.78765702728185,-249.99999999999974 -331.441821201452,-259.25925925925895 -336.78765702728185,-268.5185185185182 -326.09598537562215,-268.5185185185182 -320.7501495497923,-277.77777777777743 -326.09598537562215,-287.03703703703667 -336.78765702728185,-287.03703703703667 -331.441821201452,-296.2962962962959 -336.78765702728185,-305.55555555555515 -326.09598537562215,-305.55555555555515 -320.7501495497923,-314.8148148148144 -315.40431372396245,-305.55555555555515 -304.71264207230274,-305.55555555555515 -299.3668062464729,-314.8148148148144 -304.71264207230274,-324.0740740740736 -294.02097042064304,-324.0740740740736 -288.6751345948132,-333.33333333333286 -283.32929876898334,-324.0740740740736 -272.63762711732363,-324.0740740740736 -277.9834629431535,-314.8148148148144 -272.63762711732363,-305.55555555555515 -261.9459554656639,-305.55555555555515 -256.6001196398341,-314.8148148148144 -251.25428381400422,-305.55555555555515 -240.56261216234452,-305.55555555555515" stroke="#000" stroke-linecap="round" stroke-linejoin="round"/><polyline fill="none" points="16.03750747748981,490.74074074074 5.3458358258300915,490.74074074074 2.184918912462308e-13,499.99999999999926 -5.34583582582963,490.74074074074 -16.03750747748935,490.74074074074 -10.69167165165948,481.4814814814808 -16.037507477489328,472.22222222222155 -26.729179129149045,472.22222222222155 -32.07501495497892,481.4814814814808 -37.42085078080876,472.22222222222155 -48.11252243246848,472.22222222222155 -42.76668660663861,462.9629629629623 -48.11252243246845,453.70370370370307 -37.420850780808735,453.70370370370307 -32.07501495497886,444.44444444444383 -37.420850780808706,435.1851851851846 -48.112522432468424,435.1851851851846 -42.76668660663855,425.92592592592536 -48.112522432468396,416.6666666666661 -58.80419408412811,416.6666666666661 -64.150029909958,425.92592592592536 -69.49586573578785,416.6666666666661 -80.18753738744756,416.6666666666661 -85.53337321327744,425.92592592592536 -80.1875373874476,435.1851851851846 -90.87920903910732,435.1851851851846 -96.2250448649372,444.44444444444383 -101.57088069076704,435.1851851851846 -112.26255234242676,435.1851851851846 -106.91671651659689,425.92592592592536 -112.26255234242673,416.6666666666661 -122.95422399408645,416.6666666666661 -128.30005981991633,425.92592592592536 -133.64589564574618,416.6666666666661 -144.33756729740588,416.6666666666661 -138.991731471576,407.4074074074069 -144.33756729740585,398.14814814814764 -133.64589564574615,398.14814814814764 -128.30005981991627,388.8888888888884 -133.64589564574612,379.62962962962916 -144.33756729740583,379.62962962962916 -138.99173147157595,370.3703703703699 -144.3375672974058,361.1111111111107" stroke="#000" stroke-linecap="round" stroke-linejoin="round"/><polyline fill="none" points="416.9751944147292,-259.2592592592598 422.321030240559,-250.00000000000054 433.01270189221873,-250.00000000000054 427.6668660663889,-240.7407407407413 433.01270189221873,-231.48148148148204 422.321030240559,-231.48148148148204 416.9751944147292,-222.2222222222228 422.321030240559,-212.96296296296353 433.01270189221873,-212.96296296296353 427.6668660663889,-203.7037037037043 433.01270189221873,-194.44444444444503 422.321030240559,-194.44444444444503 416.9751944147292,-185.1851851851858 411.6293585888993,-194.44444444444503 400.9376869372396,-194.44444444444503 395.59185111140977,-185.1851851851858 400.9376869372396,-175.92592592592655 390.2460152855799,-175.92592592592655 384.90017945975006,-166.6666666666673 390.2460152855799,-157.40740740740807 400.9376869372396,-157.40740740740804 395.59185111140977,-148.1481481481488 400.9376869372396,-138.88888888888954 411.6293585888993,-138.8888888888895 416.9751944147292,-148.14814814814875 422.321030240559,-138.88888888888948 433.01270189221873,-138.88888888888945 427.6668660663889,-129.62962962963022 433.01270189221873,-120.37037037037096 422.321030240559,-120.37037037037098 416.9751944147292,-111.11111111111174 422.321030240559,-101.85185185185249 433.01270189221873,-101.85185185185247 427.6668660663889,-92.59259259259323 433.01270189221873,-83.33333333333398 422.321030240559,-83.333333333334 416.9751944147292,-74.07407407407476 411.6293585888993,-83.33333333333401 400.9376869372396,-83.33333333333402 395.59185111140977,-74.07407407407479 400.9376869372396,-64.81481481481553 390.2460152855799,-64.81481481481555 384.90017945975006,-55.55555555555632" stroke="#000" stroke-linecap="round" stroke-linejoin="round"/><polyline fill="none" points="-240.56261216234452,-305.55555555555515 -245.9084479881744,-296.2962962962959 -240.56261216234458,-287.03703703703667 -251.25428381400428,-287.03703703703667 -256.60011963983413,-277.77777777777743 -251.2542838140043,-268.5185185185182 -240.5626121623446,-268.5185185185182 -245.9084479881745,-259.25925925925895 -240.56261216234466,-249.99999999999972 -229.87094051068496,-249.9999999999997 -224.52510468485508,-259.2592592592589 -219.17926885902526,-249.99999999999966 -208.48759720736555,-249.99999999999963 -203.14176138153567,-259.25925925925884 -208.4875972073655,-268.5185185185181 -197.7959255557058,-268.5185185185181 -192.4500897298759,-277.7777777777773 -187.1042539040461,-268.5185185185181 -176.4125822523864,-268.5185185185181 -181.75841807821627,-259.25925925925884 -176.41258225238644,-249.9999999999996 -165.72091060072674,-249.99999999999957 -160.37507477489686,-259.2592592592588 -155.02923894906704,-249.99999999999955 -144.33756729740733,-249.99999999999952 -138.99173147157745,-259.2592592592587 -144.33756729740728,-268.51851851851796 -133.64589564574757,-268.51851851851796 -128.3000598199177,-277.7777777777772 -133.64589564574752,-287.03703703703644 -144.33756729740722,-287.03703703703644 -138.99173147157734,-296.2962962962957 -144.33756729740716,-305.5555555555549 -133.64589564574746,-305.5555555555549 -128.30005981991758,-314.81481481481416 -122.95422399408774,-305.5555555555549 -112.26255234242802,-305.5555555555549 -106.91671651659814,-314.81481481481416 -112.26255234242798,-324.0740740740734 -101.57088069076826,-324.0740740740734 -96.22504486493838,-333.33333333333263 -101.57088069076822,-342.59259259259187 -112.26255234242794,-342.59259259259187" stroke="#000" stroke-linecap="round" stroke-linejoin="round"/><polyline fill="none" points="-144.3375672974058,361.1111111111107 -133.6458956457461,361.1111111111107 -128.3000598199162,351.85185185185145 -122.95422399408636,361.1111111111107 -112.26255234242664,361.1111111111107 -106.91671651659678,351.85185185185145 -112.26255234242662,342.5925925925922 -101.5708806907669,342.5925925925922 -96.22504486493703,333.333333333333 -101.57088069076687,324.07407407407374 -112.26255234242659,324.07407407407374 -106.91671651659672,314.8148148148145 -112.26255234242656,305.55555555555526 -122.95422399408628,305.55555555555526 -128.30005981991616,314.8148148148145 -133.645895645746,305.55555555555526 -144.3375672974057,305.55555555555526 -138.99173147157583,296.296296296296 -144.33756729740568,287.0370370370368 -133.64589564574598,287.0370370370368 -128.3000598199161,277.77777777777754 -133.64589564574595,268.5185185185183 -144.33756729740566,268.5185185185183 -138.99173147157578,259.25925925925907 -144.33756729740563,249.99999999999983 -155.02923894906536,249.9999999999998 -160.37507477489524,259.259259259259 -165.7209106007251,249.99999999999977 -176.41258225238482,249.99999999999974 -181.7584180782147,259.25925925925895 -176.41258225238485,268.5185185185182 -187.10425390404455,268.5185185185182 -192.45008972987443,277.77777777777743 -197.7959255557043,268.5185185185182 -208.487597207364,268.5185185185182 -203.1417613815341,259.25925925925895 -208.48759720736396,249.99999999999972 -219.17926885902367,249.9999999999997 -224.52510468485355,259.2592592592589 -229.8709405106834,249.99999999999966 -240.5626121623431,249.99999999999963 -245.90844798817298,259.25925925925884 -240.56261216234313,268.5185185185181" stroke="#000" stroke-linecap="round" stroke-linejoin="round"/><polyline fill="none" points="384.90017945975006,-55.55555555555632 379.5543436339202,-64.81481481481556 368.8626719822605,-64.81481481481558 374.20850780809036,-74.07407407407482 368.8626719822605,-83.33333333333407 358.1710003306008,-83.33333333333408 352.82516450477095,-74.07407407407484 347.4793286789411,-83.3333333333341 336.7876570272814,-83.33333333333411 331.44182120145155,-74.07407407407487 336.7876570272814,-64.81481481481562 326.0959853756217,-64.81481481481563 320.75014954979184,-55.5555555555564 326.0959853756217,-46.29629629629715 336.7876570272814,-46.29629629629713 331.44182120145155,-37.0370370370379 336.7876570272814,-27.777777777778645 326.0959853756217,-27.777777777778663 320.75014954979184,-18.518518518519432 315.404313723962,-27.77777777777868 304.7126420723023,-27.777777777778702 299.36680624647244,-18.51851851851947 304.7126420723023,-9.259259259260219 294.0209704206426,-9.259259259260238 288.67513459481273,-1.0089706847793423e-12 294.0209704206426,9.259259259258243 304.7126420723023,9.259259259258268 299.36680624647244,18.518518518517496 304.7126420723023,27.77777777777675 315.404313723962,27.777777777776773 320.7501495497919,18.518518518517546 326.09598537562175,27.777777777776798 336.78765702728145,27.777777777776823 331.4418212014516,37.03703703703605 336.78765702728145,46.2962962962953 326.09598537562175,46.29629629629528 320.7501495497919,55.555555555554506 326.09598537562175,64.81481481481376 336.78765702728145,64.81481481481379 331.4418212014516,74.07407407407301 336.78765702728145,83.33333333333226 347.47932867894116,83.33333333333229 352.82516450477107,74.07407407407307" stroke="#000" stroke-linecap="round" stroke-linejoin="round"/><polyline fill="none" points="-112.26255234242794,-342.59259259259187 -106.91671651659806,-351.8518518518511 -112.2625523424279,-361.11111111111035 -122.95422399408761,-361.11111111111035 -128.3000598199175,-351.8518518518511 -133.64589564574732,-361.11111111111035 -144.33756729740702,-361.1111111111104 -138.99173147157714,-370.37037037036964 -144.33756729740696,-379.6296296296289 -133.64589564574726,-379.6296296296289 -128.30005981991738,-388.8888888888881 -133.6458956457472,-398.14814814814736 -144.3375672974069,-398.1481481481474 -138.99173147157703,-407.40740740740665 -144.33756729740685,-416.6666666666659 -133.64589564574715,-416.6666666666659 -128.30005981991727,-425.9259259259251 -122.95422399408743,-416.6666666666659 -112.26255234242771,-416.6666666666659 -106.91671651659783,-425.9259259259251 -112.26255234242767,-435.18518518518437 -101.57088069076795,-435.18518518518437 -96.22504486493807,-444.4444444444436 -90.87920903910823,-435.18518518518437 -80.18753738744851,-435.18518518518437 -85.5333732132784,-425.9259259259251 -80.18753738744856,-416.6666666666659 -69.49586573578884,-416.6666666666659 -64.15002990995896,-425.9259259259251 -58.80419408412912,-416.6666666666659 -48.11252243246941,-416.6666666666659 -42.76668660663953,-425.9259259259251 -48.11252243246936,-435.18518518518437 -37.42085078080965,-435.18518518518437 -32.07501495497977,-444.4444444444436 -37.4208507808096,-453.70370370370284 -48.11252243246931,-453.7037037037029 -42.76668660663943,-462.96296296296214 -48.11252243246926,-472.2222222222214 -37.42085078080955,-472.2222222222214 -32.07501495497967,-481.4814814814806 -26.729179129149838,-472.2222222222214 -16.037507477490127,-472.2222222222214" stroke="#000" stroke-linecap="round" stroke-linejoin="round"/><polyline fill="none" points="-240.56261216234313,268.5185185185181 -251.25428381400283,268.5185185185181 -256.6001196398327,277.7777777777773 -251.2542838140029,287.03703703703655 -240.56261216234319,287.03703703703655 -245.90844798817307,296.2962962962958 -240.56261216234324,305.55555555555503 -251.25428381400295,305.55555555555503 -256.6001196398328,314.81481481481427 -261.9459554656627,305.55555555555503 -272.6376271173224,305.55555555555503 -277.98346294315223,314.81481481481427 -272.6376271173224,324.0740740740735 -283.3292987689821,324.0740740740735 -288.67513459481194,333.33333333333275 -294.0209704206418,324.0740740740735 -304.7126420723015,324.0740740740735 -299.36680624647164,314.81481481481427 -304.7126420723015,305.55555555555503 -315.4043137239612,305.55555555555503 -320.75014954979105,314.81481481481427 -326.0959853756209,305.55555555555503 -336.7876570272806,305.55555555555503 -331.44182120145075,296.2962962962958 -336.7876570272806,287.03703703703655 -326.0959853756209,287.03703703703655 -320.75014954979105,277.7777777777773 -326.0959853756209,268.5185185185181 -336.7876570272806,268.5185185185181 -331.44182120145075,259.25925925925884 -336.7876570272806,249.9999999999996 -347.4793286789403,249.99999999999957 -352.82516450477016,259.2592592592588 -358.1710003306,249.99999999999955 -368.8626719822597,249.99999999999952 -374.20850780808956,259.2592592592587 -368.8626719822597,268.51851851851796 -379.5543436339194,268.51851851851796 -384.90017945974927,277.7777777777772 -390.2460152855791,268.51851851851796 -400.9376869372388,268.51851851851796 -395.59185111140897,259.2592592592587 -400.9376869372388,249.9999999999995" stroke="#000" stroke-linecap="round" stroke-linejoin="round"/><polyline fill="none" points="352.82516450477107,74.07407407407307 358.1710003306009,83.33333333333232 368.8626719822606,83.33333333333235 374.20850780809053,74.07407407407312 368.8626719822607,64.81481481481387 379.5543436339204,64.8148148148139 384.9001794597503,55.555555555554676 390.24601528558014,64.81481481481393 400.93768693723985,64.81481481481396 395.59185111141,74.07407407407318 400.93768693723985,83.33333333333243 411.62935858889955,83.33333333333246 416.97519441472946,74.07407407407324 422.3210302405593,83.33333333333249 433.012701892219,83.33333333333252 427.66686606638916,92.59259259259174 433.012701892219,101.851851851851 422.3210302405593,101.85185185185097 416.97519441472946,111.11111111111019 422.3210302405593,120.37037037036944 433.012701892219,120.37037037036947 427.66686606638916,129.6296296296287 433.012701892219,138.88888888888795 422.3210302405593,138.88888888888792 416.97519441472946,148.14814814814713 411.6293585888996,138.8888888888879 400.9376869372399,138.88888888888786 395.59185111141005,148.14814814814707 400.9376869372399,157.4074074074063 390.2460152855802,157.40740740740628 384.90017945975035,166.6666666666655 390.2460152855802,175.92592592592473 400.9376869372399,175.92592592592476 395.59185111141005,185.18518518518397 400.9376869372399,194.4444444444432 411.6293585888996,194.44444444444323 416.9751944147295,185.18518518518403 422.32103024055937,194.44444444444326 433.01270189221907,194.4444444444433 427.6668660663892,203.7037037037025 433.01270189221907,212.96296296296174 422.32103024055937,212.9629629629617 416.9751944147295,222.22222222222092" stroke="#000" stroke-linecap="round" stroke-linejoin="round"/><polyline fill="none" points="-16.037507477490127,-472.2222222222214 -10.691671651660249,-481.4814814814806 -16.03750747749008,-490.74074074073985 -5.34583582583037,-490.74074074073985 -4.920508445138694e-13,-499.9999999999991" stroke="#000" stroke-linecap="round" stroke-linejoin="round"/><polyline fill="none" points="-400.9376869372388,249.9999999999995 -411.6293585888985,249.99999999999946 -416.9751944147284,259.25925925925867 -422.32103024055823,249.99999999999943 -433.01270189221793,249.9999999999994" stroke="#000" stroke-linecap="round" stroke-linejoin="round"/><polyline fill="none" points="416.9751944147295,222.22222222222092 422.32103024055937,231.48148148148016 433.01270189221907,231.4814814814802 427.6668660663892,240.7407407407394 433.01270189221907,249.99999999999864" stroke="#000" stroke-linecap="round" stroke-linejoin="round"/><polygon fill="#000" fill-rule="evenodd" points="-4.920508445138694e-13,-499.9999999999991 -8.830127018922699,-494.70577136593914 -3.5000000000005076,-493.93782217350804 -0.16987298107832416,-489.70577136593914" stroke="#000" stroke-linejoin="round"/><polygon fill="#000" fill-rule="evenodd" points="-433.01270189221793,249.9999999999994 -424.01270189221793,254.99999999999943 -426.01270189221793,249.99999999999943 -424.01270189221793,244.99999999999943" stroke="#000" stroke-linejoin="round"/><polygon fill="#000" fill-rule="evenodd" points="433.01270189221907,249.99999999999864 432.8428289111413,239.7057713659387 429.51270189221907,243.93782217350756 424.1825748732969,244.70577136593866" stroke="#000" stroke-linejoin="round"/></svg>