<?xml version="1.0" ?><!DOCTYPE svg  PUBLIC '-//W3C//DTD SVG 1.1//EN'  'http://www.w3.org/Graphics/SVG/1.1/DTD/svg11.dtd'><svg height="1024.000" viewBox="-445.000 -512.000 890.000 1024.000" width="890.000" xmlns="http://www.w3.org/2000/svg"><line fill="none" stroke="none" stroke-linecap="round" stroke-width="2.0" x1="0.0" x2="0.0" y1="0.0" y2="0.0"/><line fill="none" stroke="none" stroke-linecap="round" stroke-width="2.0" x1="0.0" x2="0.0" y1="0.0" y2="0.0"/><line fill="none" stroke="none" stroke-linecap="round" stroke-width="2.0" x1="0.0" x2="0.0" y1="0.0" y2="0.0"/><polyline fill="none" points="-433.0127018922193,250.00000000000006 -384.90017945975046,166.66666666666674 -433.01270189221924,83.3333333333334 -336.7876570272816,83.3333333333334 -288.6751345948128,8.526512829121202e-14 -336.78765702728157,-83.33333333333326 -433.0127018922192,-83.3333333333333 -384.90017945975035,-166.66666666666663 -433.0127018922191,-249.99999999999997 -336.7876570272815,-249.99999999999994 -288.6751345948127,-333.33333333333326 -240.5626121623439,-249.99999999999994 -144.33756729740628,-249.99999999999991 -96.22504486493744,-333.3333333333332 -144.3375672974062,-416.6666666666665 -48.112522432468595,-416.66666666666646 2.4868995751603507e-13,-499.9999999999998" stroke="#000" stroke-linecap="round" stroke-linejoin="round"/><polyline fill="none" points="433.0127018922194,249.99999999999983 336.7876570272818,249.99999999999983 288.675134594813,333.33333333333314 240.56261216234418,249.99999999999983 144.33756729740657,249.99999999999983 96.22504486493774,333.33333333333314 144.33756729740654,416.6666666666665 48.11252243246892,416.6666666666665 9.947598300641403e-14,499.99999999999983 -48.11252243246871,416.6666666666665 -144.33756729740634,416.6666666666665 -96.22504486493754,333.3333333333332 -144.33756729740634,249.9999999999999 -240.56261216234395,249.9999999999999 -288.6751345948128,333.3333333333332 -336.78765702728157,249.9999999999999 -433.0127018922192,249.99999999999986" stroke="#000" stroke-linecap="round" stroke-linejoin="round"/><polyline fill="none" points="1.5308084989341916e-13,-500.0 48.11252243246898,-416.6666666666667 144.3375672974066,-416.6666666666667 96.22504486493781,-333.33333333333337 144.33756729740662,-250.00000000000006 240.56261216234424,-250.00000000000006 288.6751345948131,-333.33333333333337 336.78765702728185,-250.00000000000006 433.01270189221947,-250.00000000000003 384.9001794597507,-166.6666666666667 433.01270189221947,-83.3333333333334 336.78765702728185,-83.3333333333334 288.6751345948131,-9.947598300641403e-14 336.78765702728185,83.33333333333321 433.0127018922194,83.33333333333326 384.9001794597506,166.66666666666654 433.01270189221935,249.99999999999986" stroke="#000" stroke-linecap="round" stroke-linejoin="round"/><polygon fill="#000" fill-rule="evenodd" points="2.4868995751603507e-13,-499.9999999999998 -8.830127018921948,-494.7057713659398 -3.4999999999997544,-493.9378221735087 -0.1698729810775621,-489.7057713659398" stroke="#000" stroke-linejoin="round"/><polygon fill="#000" fill-rule="evenodd" points="-433.0127018922192,249.99999999999986 -424.0127018922192,254.99999999999986 -426.0127018922192,249.99999999999986 -424.0127018922192,244.99999999999986" stroke="#000" stroke-linejoin="round"/><polygon fill="#000" fill-rule="evenodd" points="433.01270189221935,249.99999999999986 432.84282891114157,239.7057713659399 429.51270189221935,243.93782217350878 424.18257487329714,244.7057713659399" stroke="#000" stroke-linejoin="round"/></svg>