<?xml version="1.0" ?><!DOCTYPE svg  PUBLIC '-//W3C//DTD SVG 1.1//EN'  'http://www.w3.org/Graphics/SVG/1.1/DTD/svg11.dtd'><svg height="1024.000" viewBox="-445.000 -512.000 890.000 1024.000" width="890.000" xmlns="http://www.w3.org/2000/svg"><line fill="none" stroke="none" stroke-linecap="round" stroke-width="2.0" x1="0.0" x2="0.0" y1="0.0" y2="0.0"/><line fill="none" stroke="none" stroke-linecap="round" stroke-width="2.0" x1="0.0" x2="0.0" y1="0.0" y2="0.0"/><line fill="none" stroke="none" stroke-linecap="round" stroke-width="2.0" x1="0.0" x2="0.0" y1="0.0" y2="0.0"/><polyline fill="none" points="-433.0127018922193,250.00000000000006 -288.67513459481285,1.1368683772161603e-13 -433.0127018922192,-249.99999999999991 -144.33756729740634,-249.9999999999999 1.1368683772161603e-13,-499.99999999999983" stroke="#000" stroke-linecap="round" stroke-linejoin="round"/><polyline fill="none" points="433.0127018922194,249.99999999999983 144.33756729740657,249.99999999999986 1.4210854715202004e-13,499.9999999999999 -144.33756729740634,249.99999999999994 -433.0127018922192,249.99999999999997" stroke="#000" stroke-linecap="round" stroke-linejoin="round"/><polyline fill="none" points="1.5308084989341916e-13,-500.0 144.3375672974066,-250.00000000000006 433.0127018922194,-250.00000000000006 288.675134594813,-5.684341886080802e-14 433.0127018922194,249.9999999999999" stroke="#000" stroke-linecap="round" stroke-linejoin="round"/><polygon fill="#000" fill-rule="evenodd" points="1.1368683772161603e-13,-499.99999999999983 -8.83012701892208,-494.7057713659399 -3.499999999999887,-493.9378221735088 -0.16987298107769444,-489.7057713659399" stroke="#000" stroke-linejoin="round"/><polygon fill="#000" fill-rule="evenodd" points="-433.0127018922192,249.99999999999997 -424.0127018922192,254.99999999999997 -426.0127018922192,249.99999999999997 -424.0127018922192,244.99999999999997" stroke="#000" stroke-linejoin="round"/><polygon fill="#000" fill-rule="evenodd" points="433.0127018922194,249.9999999999999 432.8428289111416,239.70577136593994 429.5127018922194,243.9378221735088 424.1825748732972,244.70577136593994" stroke="#000" stroke-linejoin="round"/></svg>